<?xml version="1.0" encoding="UTF-8" standalone="no"?>
<svg
   xmlns:dc="http://purl.org/dc/elements/1.1/"
   xmlns:cc="http://creativecommons.org/ns#"
   xmlns:rdf="http://www.w3.org/1999/02/22-rdf-syntax-ns#"
   xmlns:svg="http://www.w3.org/2000/svg"
   xmlns="http://www.w3.org/2000/svg"
   xmlns:sodipodi="http://sodipodi.sourceforge.net/DTD/sodipodi-0.dtd"
   xmlns:inkscape="http://www.inkscape.org/namespaces/inkscape"
   viewBox="0 0 412 412"
   version="1.1"
   id="svg4681"
   sodipodi:docname="es6-logo.svg"
   width="412"
   height="412"
   inkscape:version="0.92.1 r15371">
  <metadata
     id="metadata4687">
    <rdf:RDF>
      <cc:Work
         rdf:about="">
        <dc:format>image/svg+xml</dc:format>
        <dc:type
           rdf:resource="http://purl.org/dc/dcmitype/StillImage" />
        <dc:title></dc:title>
      </cc:Work>
    </rdf:RDF>
  </metadata>
  <defs
     id="defs4685" />
  <sodipodi:namedview
     pagecolor="#ffffff"
     bordercolor="#666666"
     borderopacity="1"
     objecttolerance="10"
     gridtolerance="10"
     guidetolerance="10"
     inkscape:pageopacity="0"
     inkscape:pageshadow="2"
     inkscape:window-width="1920"
     inkscape:window-height="1017"
     id="namedview4683"
     showgrid="false"
     inkscape:zoom="1.0595378"
     inkscape:cx="-24.802027"
     inkscape:cy="197.35126"
     inkscape:window-x="-8"
     inkscape:window-y="-8"
     inkscape:window-maximized="1"
     inkscape:current-layer="svg4681" />
  <rect
     width="412"
     height="412"
     id="rect4677"
     x="0"
     y="0"
     style="fill:#f7df1e;stroke-width:0.65396827" />
  <path
     d="m 305.42394,279.1144 c -12.40697,-3.0925 -17.8575,-5.9072 -26.03418,-13.4442 -15.49218,-14.2802 -18.43322,-36.2665 -7.86225,-58.7761 2.26279,-4.81834 14.33604,-22.44031 26.82941,-39.15993 l 22.71525,-30.39931 h 16.85297 c 9.26913,0 16.85296,0.3179 16.85296,0.70646 0,1.77189 -31.89267,42.28298 -36.41025,46.24947 -6.07945,5.33783 -6.69826,7.95122 -1.40634,5.93923 6.57014,-2.49797 22.74177,-1.64283 31.59851,1.67091 17.31326,6.47772 26.91609,21.68157 26.67884,42.23957 -0.26922,23.3263 -15.59508,40.0802 -41.73158,45.6201 -11.94796,2.5325 -15.67429,2.4468 -28.08334,-0.6462 z m 26.17868,-26.4839 c 7.89807,-4.1093 10.84478,-8.857 11.43387,-18.4217 0.46357,-7.527 0.0335,-9.6424 -2.79626,-13.7564 -8.93309,-12.9868 -29.41742,-13.71 -38.808,-1.37 -4.51952,5.939 -5.90423,11.1824 -4.6785,17.7161 1.02099,5.4423 8.14672,14.5517 12.88367,16.4702 4.73934,1.9194 17.77771,1.5406 21.96522,-0.6382 z m -141.2803,26.0866 c -10.78035,-1.5387 -19.59343,-5.1465 -27.10579,-11.0964 -6.24101,-4.943 -14.3797,-16.0829 -12.29259,-16.8257 0.7868,-0.28 5.84941,-2.9904 11.25025,-6.0231 l 9.81967,-5.514 5.20116,5.769 c 8.89134,9.8622 20.41518,13.1597 33.39295,9.5553 6.52265,-1.8115 11.14847,-7.9175 11.14847,-14.7158 0,-7.2596 -5.80378,-12.3158 -22.44984,-19.5577 -27.18685,-11.8277 -37.85412,-22.00709 -39.85651,-38.03366 -2.60975,-20.88787 5.46648,-35.37954 23.50852,-42.18266 11.4146,-4.3041 29.25037,-3.43007 39.726,1.94675 6.92976,3.55683 16.23849,12.74571 16.23849,16.02941 0,1.30614 -17.42243,13.59966 -19.27348,13.59966 -0.39367,0 -2.85657,-2.336 -5.47308,-5.1911 -3.97151,-4.33367 -5.94939,-5.30565 -11.97467,-5.8846 -6.45806,-0.62054 -7.71092,-0.25254 -11.90843,3.49795 -3.89911,3.48384 -4.69105,5.21155 -4.69105,10.23405 0,8.39864 3.45216,11.52967 21.62313,19.6117 33.24366,14.786 43.62601,27.4353 41.26833,50.2789 -2.60117,25.2029 -26.00719,39.09 -58.15153,34.502 z M 42.917,208.1474 v -69.38198 h 45.0625 45.06249 v 11.41708 11.41708 l -31.82986,0.38499 -31.82985,0.385 v 16.45139 16.45139 l 28.25347,0.38786 28.25346,0.38786 v 10.66873 10.6686 l -28.25346,0.3879 -28.25347,0.3879 v 17.8819 17.8819 l 33.26041,0.3841 33.26041,0.384 v 11.418 11.4181 H 89.41005 42.917 Z"
     id="path5701"
     inkscape:connector-curvature="0"
     style="fill:#000000;stroke-width:1.4305557" />
</svg>
