<?xml version="1.0" encoding="UTF-8" standalone="no"?>
<!-- Created with Inkscape (http://www.inkscape.org/) -->

<svg
   xmlns:dc="http://purl.org/dc/elements/1.1/"
   xmlns:cc="http://creativecommons.org/ns#"
   xmlns:rdf="http://www.w3.org/1999/02/22-rdf-syntax-ns#"
   xmlns:svg="http://www.w3.org/2000/svg"
   xmlns="http://www.w3.org/2000/svg"
   xmlns:sodipodi="http://sodipodi.sourceforge.net/DTD/sodipodi-0.dtd"
   xmlns:inkscape="http://www.inkscape.org/namespaces/inkscape"
   width="500"
   height="110.485"
   viewBox="0 0 132.29166 29.232491"
   version="1.1"
   id="svg4865"
   inkscape:version="0.92.1 r15371"
   sodipodi:docname="expressjs-logo.svg">
  <defs
     id="defs4859" />
  <sodipodi:namedview
     id="base"
     pagecolor="#ffffff"
     bordercolor="#666666"
     borderopacity="1.0"
     inkscape:pageopacity="0.0"
     inkscape:pageshadow="2"
     inkscape:zoom="0.49497475"
     inkscape:cx="60.017631"
     inkscape:cy="120.25078"
     inkscape:document-units="mm"
     inkscape:current-layer="layer1"
     showgrid="false"
     inkscape:window-width="1842"
     inkscape:window-height="832"
     inkscape:window-x="66"
     inkscape:window-y="235"
     inkscape:window-maximized="0"
     units="px" />
  <metadata
     id="metadata4862">
    <rdf:RDF>
      <cc:Work
         rdf:about="">
        <dc:format>image/svg+xml</dc:format>
        <dc:type
           rdf:resource="http://purl.org/dc/dcmitype/StillImage" />
        <dc:title></dc:title>
      </cc:Work>
    </rdf:RDF>
  </metadata>
  <g
     inkscape:label="Layer 1"
     inkscape:groupmode="layer"
     id="layer1"
     transform="translate(0,-267.7675)">
    <path
       style="fill:#1f2924;stroke-width:0.34805235"
       d="m 40.470014,282.67203 c 0.07032,-11.08763 0.189268,-14.36075 0.525946,-14.47292 0.324071,-0.108 0.439001,0.59505 0.450457,2.75543 l 0.01538,2.90039 0.654908,-1.23863 c 0.786342,-1.4872 2.590288,-3.32176 3.982543,-4.0501 1.43248,-0.7494 4.761673,-0.98094 6.620735,-0.46045 2.125573,0.5951 4.137834,2.41338 5.300362,4.78943 0.80509,1.64548 0.991391,2.54223 1.100799,5.29873 0.202037,5.09026 -1.266067,8.55219 -4.547665,10.72376 -1.139588,0.75412 -1.918026,0.96463 -3.945474,1.06702 -1.425437,0.072 -3.088956,-0.0582 -3.818519,-0.29909 -1.709528,-0.56417 -3.940763,-2.61425 -4.729096,-4.34514 l -0.634074,-1.39219 -0.0076,6.52587 C 41.432113,296.0608 41.355329,297 40.905074,297 40.442893,297 40.39014,295.26281 40.47,282.67203 Z m 13.112192,5.8168 c 2.859672,-1.47873 4.67701,-5.20403 4.67701,-9.58723 0,-3.20852 -0.783053,-5.69269 -2.38396,-7.56292 -1.562631,-1.82553 -3.187745,-2.56484 -5.659625,-2.5748 -3.678785,-0.0148 -5.880972,1.41466 -7.516902,4.87925 -0.954042,2.02049 -1.08505,2.6597 -1.07776,5.25847 0.01491,5.31256 1.956503,8.7295 5.625178,9.89953 1.897244,0.60506 4.84278,0.45988 6.336059,-0.3123 z M 4.8602772,289.08196 C 2.6152128,287.94485 1.309964,286.17449 0.54149557,283.22425 -1.5726526,275.10778 2.7237529,267.77863 9.6023452,267.76753 c 5.0073938,-0.009 8.5694618,3.59991 9.0934218,9.21067 l 0.212119,2.27145 H 9.9333671 0.95884388 l 0.19768452,1.91529 c 0.2633458,2.5515 1.6222548,5.42729 3.0955692,6.55101 0.6553847,0.49986 2.0292718,1.08849 3.0530838,1.30806 4.9454366,1.06055 9.1284016,-1.40357 10.2410786,-6.03286 0.276762,-1.15148 0.914278,-1.27346 0.909504,-0.17402 -0.0058,1.34915 -1.610186,4.30552 -2.849363,5.25064 -1.925493,1.4686 -3.531364,1.97131 -6.297199,1.97131 -2.1017087,0 -2.8970231,-0.1711 -4.4489248,-0.95712 z M 17.763047,277.0004 c 0,-1.80957 -1.245985,-4.78162 -2.522581,-6.01712 -2.251382,-2.17891 -5.8789108,-2.84644 -8.8998623,-1.63774 -2.643238,1.05758 -5.284369,5.07089 -5.284369,8.02982 v 0.83015 h 8.3534067 8.3534056 z m 60.885657,12.08156 c -2.245061,-1.13711 -3.550305,-2.90747 -4.318776,-5.85771 -2.114157,-8.11647 2.182253,-15.44562 9.060852,-15.45672 5.007379,-0.009 8.569454,3.59991 9.09341,9.21067 l 0.212124,2.27145 H 83.721799 74.74727 l 0.197689,1.91529 c 0.26335,2.5515 1.622255,5.42729 3.095571,6.55101 0.655383,0.49986 2.029276,1.08849 3.053086,1.30806 4.945428,1.06055 9.128402,-1.40357 10.241072,-6.03286 0.276772,-1.15148 0.914284,-1.27346 0.909514,-0.17402 -0.0061,1.34915 -1.610194,4.30552 -2.849369,5.25064 -1.925497,1.4686 -3.531371,1.97131 -6.297196,1.97131 -2.101707,0 -2.897024,-0.1711 -4.448933,-0.95712 z m 12.90278,-12.08156 c 0,-1.80957 -1.245995,-4.78162 -2.522597,-6.01712 -2.251372,-2.17891 -5.878896,-2.84644 -8.899854,-1.63774 -2.643242,1.05758 -5.284374,5.07089 -5.284374,8.02982 v 0.83015 h 8.353415 8.35341 z m 8.967386,12.69213 c -2.755129,-0.82956 -4.295323,-2.63283 -4.760153,-5.57323 -0.388823,-2.45963 0.425546,-2.31485 0.982694,0.17468 0.551481,2.46419 1.868192,3.81124 4.462609,4.56544 3.48154,1.01207 7.95012,-0.0813 9.23725,-2.2601 0.89359,-1.51268 0.78065,-3.6029 -0.26161,-4.8415 -1.03092,-1.22512 -1.72691,-1.52317 -6.2721,-2.68586 -6.027605,-1.54188 -7.485117,-2.70405 -7.481962,-5.96571 0.0024,-3.00871 2.435134,-5.01024 6.393892,-5.26171 4.14585,-0.26335 7.00425,1.01947 8.09657,3.63366 0.54278,1.29899 0.63286,3.24685 0.15016,3.24685 -0.33717,0 -0.51737,-0.46861 -0.88454,-2.3004 -0.25148,-1.25467 -1.64289,-2.70373 -3.14159,-3.27176 -1.37546,-0.52133 -5.00259,-0.52808 -6.56569,-0.0123 -2.92913,0.96666 -4.014579,4.47282 -2.048765,6.6178 0.775169,0.84583 1.775755,1.27534 5.262285,2.25892 5.29162,1.4928 6.60247,2.11849 7.61129,3.63306 1.84219,2.7657 0.40663,6.37587 -3.12151,7.84995 -1.38971,0.58064 -5.98557,0.69594 -7.65883,0.19213 z m 20.18741,0 c -2.75514,-0.82956 -4.29533,-2.63283 -4.76016,-5.57323 -0.38883,-2.45963 0.42553,-2.31485 0.98269,0.17468 0.55147,2.46419 1.8682,3.81124 4.46261,4.56544 3.48154,1.01207 7.95012,-0.0813 9.23724,-2.2601 0.8936,-1.51268 0.78065,-3.6029 -0.26161,-4.8415 -1.03091,-1.22512 -1.72691,-1.52317 -6.2721,-2.68586 -6.02759,-1.54188 -7.48512,-2.70405 -7.48195,-5.96571 0.002,-3.00871 2.43514,-5.01024 6.39391,-5.26171 4.14584,-0.26335 7.00423,1.01947 8.09654,3.63366 0.54278,1.29899 0.63288,3.24685 0.15017,3.24685 -0.33718,0 -0.51737,-0.46861 -0.88453,-2.3004 -0.25149,-1.25467 -1.64291,-2.70373 -3.14161,-3.27176 -1.37545,-0.52133 -5.00257,-0.52808 -6.56568,-0.0123 -2.92913,0.96666 -4.01458,4.47282 -2.04876,6.6178 0.77517,0.84583 1.77574,1.27534 5.26227,2.25892 5.29162,1.4928 6.60247,2.11849 7.61129,3.63306 1.8422,2.7657 0.40663,6.37587 -3.1215,7.84995 -1.38971,0.58064 -5.98558,0.69594 -7.65882,0.19213 z M 20.199458,289.48752 c 0,-0.11189 1.801204,-2.53294 4.002674,-5.38 2.201471,-2.84708 4.002674,-5.34909 4.002674,-5.55999 0,-0.21093 -1.644577,-2.53583 -3.654617,-5.16645 -2.010038,-2.63062 -3.654614,-4.89228 -3.654614,-5.02592 0,-1.01854 1.436792,0.46242 4.526867,4.66605 2.882897,3.9218 3.683033,4.80746 3.978624,4.40387 3.857969,-5.26745 7.074767,-9.30361 7.418191,-9.30771 0.239291,-0.002 0.435074,0.0765 0.435074,0.17634 0,0.0999 -1.713952,2.46196 -3.808778,5.24914 l -3.808779,5.06762 4.156837,5.34915 c 2.28626,2.94204 4.156839,5.43515 4.156839,5.54027 0,0.10509 -0.199478,0.19114 -0.443282,0.19114 -0.243804,0 -1.614286,-1.51665 -3.045513,-3.37032 -1.431226,-1.85367 -3.241459,-4.19631 -4.022736,-5.20587 l -1.420504,-1.83556 -3.974406,5.20368 c -3.384922,4.43187 -4.844551,5.93971 -4.844551,5.00456 z M 63.440714,279.0175 c 0.0704,-8.16301 0.194376,-10.70762 0.527116,-10.81844 0.320904,-0.10691 0.438647,0.5249 0.448697,2.40744 0.01284,2.40842 0.03933,2.49346 0.469358,1.50821 0.640966,-1.46853 3.050072,-3.53978 4.626243,-3.97743 1.671261,-0.46407 3.592235,-0.48104 3.592235,-0.0318 0,0.33684 -0.39524,0.45935 -2.778774,0.86138 -2.023723,0.34135 -3.667049,1.69308 -4.75721,3.91314 -0.981456,1.99866 -0.992572,2.09355 -1.103221,9.41499 -0.09312,6.16143 -0.19563,7.39599 -0.614132,7.39599 -0.42885,0 -0.488891,-1.56179 -0.410312,-10.67355 z"
       id="path4839"
       inkscape:connector-curvature="0" />
  </g>
</svg>
