<?xml version="1.0" encoding="UTF-8" standalone="no"?>
<svg
   xmlns:dc="http://purl.org/dc/elements/1.1/"
   xmlns:cc="http://creativecommons.org/ns#"
   xmlns:rdf="http://www.w3.org/1999/02/22-rdf-syntax-ns#"
   xmlns:svg="http://www.w3.org/2000/svg"
   xmlns="http://www.w3.org/2000/svg"
   xmlns:sodipodi="http://sodipodi.sourceforge.net/DTD/sodipodi-0.dtd"
   xmlns:inkscape="http://www.inkscape.org/namespaces/inkscape"
   width="412"
   height="252.32899"
   version="1.2"
   viewBox="0 0 308.99981 189.24709"
   id="svg4811"
   sodipodi:docname="nodejs-logo.svg"
   inkscape:version="0.92.1 r15371">
  <metadata
     id="metadata4815">
    <rdf:RDF>
      <cc:Work
         rdf:about="">
        <dc:format>image/svg+xml</dc:format>
        <dc:type
           rdf:resource="http://purl.org/dc/dcmitype/StillImage" />
        <dc:title></dc:title>
      </cc:Work>
    </rdf:RDF>
  </metadata>
  <sodipodi:namedview
     pagecolor="#ffffff"
     bordercolor="#666666"
     borderopacity="1"
     objecttolerance="10"
     gridtolerance="10"
     guidetolerance="10"
     inkscape:pageopacity="0"
     inkscape:pageshadow="2"
     inkscape:window-width="1920"
     inkscape:window-height="1017"
     id="namedview4813"
     showgrid="false"
     inkscape:zoom="0.4814971"
     inkscape:cx="294.91351"
     inkscape:cy="180.619"
     inkscape:window-x="-8"
     inkscape:window-y="-8"
     inkscape:window-maximized="1"
     inkscape:current-layer="svg4811" />
  <defs
     id="defs4789">
    <clipPath
       id="a">
      <path
         d="m 239.03,226.605 -42.13,24.317 c -1.578,0.91 -2.546,2.59 -2.546,4.406 v 48.668 c 0,1.817 0.968,3.496 2.546,4.406 l 42.133,24.336 c 1.575,0.907 3.517,0.907 5.09,0 l 42.126,-24.336 c 1.57,-0.91 2.54,-2.59 2.54,-4.406 v -48.668 c 0,-1.816 -0.97,-3.496 -2.55,-4.406 l -42.12,-24.317 c -0.79,-0.453 -1.67,-0.68 -2.55,-0.68 -0.88,0 -1.76,0.227 -2.55,0.68"
         id="path4755"
         inkscape:connector-curvature="0" />
    </clipPath>
    <linearGradient
       id="b"
       x1="-0.34799999"
       x2="1.251"
       gradientTransform="matrix(-38.064915,77.652126,-77.652126,-38.064915,258.72325,244.62943)"
       gradientUnits="userSpaceOnUse">
      <stop
         offset=".3"
         stop-color="#3E863D"
         id="stop4758" />
      <stop
         offset=".5"
         stop-color="#55934F"
         id="stop4760" />
      <stop
         offset=".8"
         stop-color="#5AAD45"
         id="stop4762" />
    </linearGradient>
    <clipPath
       id="c">
      <path
         d="m 195.398,307.086 c 0.403,0.523 0.907,0.976 1.5,1.316 l 36.14,20.875 6.02,3.46 c 0.9,0.52 1.926,0.74 2.934,0.665 0.336,-0.027 0.672,-0.09 1,-0.183 l 44.434,-81.36 c -0.34,-0.37 -0.738,-0.68 -1.184,-0.94 l -27.586,-15.93 -14.582,-8.39 c -0.414,-0.24 -0.863,-0.41 -1.32,-0.53 z m 0,0"
         id="path4765"
         inkscape:connector-curvature="0" />
    </clipPath>
    <linearGradient
       id="d"
       x1="-0.456"
       x2="0.58200002"
       gradientTransform="matrix(106.8057,-78.916731,78.916731,106.8057,235.18824,285.39477)"
       gradientUnits="userSpaceOnUse">
      <stop
         offset=".57"
         stop-color="#3E863D"
         id="stop4768" />
      <stop
         offset=".72"
         stop-color="#619857"
         id="stop4770" />
      <stop
         offset="1"
         stop-color="#76AC64"
         id="stop4772" />
    </linearGradient>
    <clipPath
       id="e">
      <path
         d="m 241.066,225.953 c -0.707,0.07 -1.398,0.29 -2.035,0.652 l -42.01,24.247 45.3,82.51 c 0.63,-0.09 1.25,-0.3 1.81,-0.624 l 42.13,-24.336 c 1.3,-0.754 2.19,-2.03 2.46,-3.476 l -46.18,-78.89 c -0.34,-0.067 -0.68,-0.102 -1.03,-0.102 -0.14,0 -0.28,0.007 -0.42,0.02"
         id="path4775"
         inkscape:connector-curvature="0" />
    </clipPath>
    <linearGradient
       id="f"
       x1="0.043000001"
       x2="0.98400003"
       gradientTransform="matrix(97.417,0,0,97.417,192.862,279.652)"
       gradientUnits="userSpaceOnUse">
      <stop
         offset=".16"
         stop-color="#6BBF47"
         id="stop4778" />
      <stop
         offset=".38"
         stop-color="#79B461"
         id="stop4780" />
      <stop
         offset=".47"
         stop-color="#75AC64"
         id="stop4782" />
      <stop
         offset=".7"
         stop-color="#659E5A"
         id="stop4784" />
      <stop
         offset=".9"
         stop-color="#3E863D"
         id="stop4786" />
    </linearGradient>
  </defs>
  <path
     d="m 152.72746,189.2481 c -1.01983,0 -2.03267,-0.26753 -2.92676,-0.78233 l -9.31605,-5.51543 c -1.39144,-0.77814 -0.71248,-1.05336 -0.25356,-1.21192 1.85524,-0.64961 2.23174,-0.7963 4.21202,-1.9209 0.20816,-0.11875 0.48057,-0.0768 0.69362,0.0489 l 7.15695,4.24693 c 0.25845,0.13971 0.62517,0.13971 0.86476,0 l 27.90554,-16.10763 c 0.25845,-0.14669 0.42609,-0.44705 0.42609,-0.75439 v -32.2013 c 0,-0.32131 -0.16764,-0.6077 -0.43168,-0.76836 L 153.16403,118.188 c -0.25845,-0.15367 -0.60072,-0.15367 -0.85917,0 l -27.88878,16.09367 c -0.27032,0.15367 -0.44215,0.45403 -0.44215,0.76137 v 32.2013 c 0,0.30735 0.16764,0.60072 0.43307,0.74741 l 7.64172,4.41458 c 4.14916,2.07458 6.68476,-0.37021 6.68476,-2.82896 v -31.7822 c 0,-0.45403 0.35624,-0.80328 0.81027,-0.80328 h 3.53447 c 0.44006,0 0.80329,0.34925 0.80329,0.80328 v 31.79617 c 0,5.53219 -3.01757,8.71041 -8.26339,8.71041 -1.61357,0 -2.88486,0 -6.43329,-1.74627 l -7.32041,-4.219 c -1.80914,-1.04776 -2.92676,-3.00359 -2.92676,-5.09214 v -32.2013 c 0,-2.09552 1.11762,-4.05135 2.92676,-5.08515 l 27.93348,-16.11462 c 1.76724,-0.99887 4.11423,-0.99887 5.8675,0 l 27.89855,16.12161 c 1.80216,1.04078 2.92677,2.98962 2.92677,5.08515 v 32.2013 c 0,2.08854 -1.12461,4.03739 -2.92677,5.08515 L 155.6654,188.4511 c -0.8941,0.5169 -1.90694,0.78233 -2.94074,0.78233"
     id="path4791"
     inkscape:connector-curvature="0"
     style="fill:#689f63;stroke-width:0.69851065" />
  <path
     d="m 161.34709,167.05924 c -12.20998,0 -14.77002,-5.60484 -14.77002,-10.30581 0,-0.44705 0.36043,-0.80329 0.80817,-0.80329 h 3.60432 c 0.39815,0 0.73344,0.28988 0.7963,0.68314 0.54484,3.67277 2.16539,5.52521 9.54866,5.52521 5.88147,0 8.38214,-1.32856 8.38214,-4.44741 0,-1.79517 -0.71248,-3.12932 -9.84902,-4.02341 -7.64171,-0.75439 -12.36365,-2.4378 -12.36365,-8.54976 0,-5.62999 4.74988,-8.98284 12.70593,-8.98284 8.93396,0 13.36252,3.10139 13.92133,9.76517 0.0209,0.23051 -0.0629,0.45403 -0.21654,0.62167 -0.15367,0.16066 -0.37021,0.25845 -0.59373,0.25845 h -3.62528 c -0.37719,0 -0.70549,-0.26543 -0.78233,-0.62866 -0.87314,-3.86276 -2.98264,-5.09912 -8.71742,-5.09912 -6.41933,0 -7.16674,2.23523 -7.16674,3.91166 0,2.03266 0.88013,2.62639 9.54167,3.77195 8.57773,1.13857 12.65005,2.74514 12.65005,8.77328 0,6.07704 -5.07119,9.5626 -13.91435,9.5626 m 33.98957,-34.15014 h 0.93601 c 0.76836,0 0.91505,-0.53786 0.91505,-0.85218 0,-0.82425 -0.56579,-0.82425 -0.88012,-0.82425 h -0.96396 z m -1.13857,-2.64037 h 2.07458 c 0.71248,0 2.1095,0 2.1095,1.5926 0,1.11063 -0.71248,1.34114 -1.13857,1.48084 0.83123,0.0559 0.88711,0.60072 0.99887,1.36908 0.0559,0.48197 0.14669,1.3132 0.31433,1.5926 h -1.27827 c -0.0349,-0.2794 -0.23051,-1.81612 -0.23051,-1.89994 -0.0838,-0.34227 -0.20257,-0.50991 -0.62866,-0.50991 h -1.05476 v 2.41684 h -1.16651 z m -2.49369,3.00359 c 0,2.50067 2.0187,4.52635 4.49842,4.52635 2.50067,0 4.51937,-2.06759 4.51937,-4.52635 0,-2.50765 -2.04664,-4.4984 -4.52636,-4.4984 -2.44479,0 -4.49841,1.96281 -4.49841,4.49142 m 9.89092,0.0209 c 0,2.96168 -2.42383,5.37853 -5.37854,5.37853 -2.93375,0 -5.37854,-2.38891 -5.37854,-5.37853 0,-3.0455 2.50067,-5.37852 5.37854,-5.37852 2.89882,0 5.37155,2.34001 5.37155,5.37852"
     id="path4793"
     inkscape:connector-curvature="0"
     style="fill:#689f63;stroke-width:0.69851065" />
  <path
     d="m 66.313894,63.250906 c 0,-1.28526 -0.677556,-2.46574 -1.786792,-3.10487 L 34.940946,43.123346 c -0.499436,-0.29337 -1.058944,-0.44704 -1.626135,-0.468 h -0.305948 c -0.567192,0.021 -1.126699,0.17463 -1.634518,0.468 L 1.7895867,60.146036 C 0.68733539,60.788656 0,61.969146 0,63.254396 l 0.06496157,45.850184 c 0,0.63565 0.32830044,1.22938 0.88710967,1.54371 0.54483906,0.33528 1.22938046,0.33528 1.77421936,0 L 20.314812,100.57578 c 1.110633,-0.660794 1.78819,-1.828704 1.78819,-3.101384 v -21.41981 c 0,-1.27827 0.677556,-2.45875 1.784697,-3.09439 l 7.488044,-4.3126 c 0.556015,-0.32132 1.166514,-0.48058 1.788189,-0.48058 0.611897,0 1.236366,0.15787 1.777014,0.47988 l 7.484551,4.3112 c 1.107839,0.63564 1.78819,1.81613 1.78819,3.0944 v 21.4184 c 0,1.27129 0.686637,2.44479 1.791682,3.101394 l 17.577345,10.06552 c 0.551824,0.3283 1.238461,0.3283 1.78819,0 0.542045,-0.31433 0.885712,-0.90806 0.885712,-1.5437 z m 139.610116,23.87227 c 0,0.31922 -0.16974,0.61469 -0.44705,0.77255 l -10.16195,5.8577 c -0.27591,0.15857 -0.61679,0.15857 -0.892,0 l -10.16334,-5.8577 c -0.27941,-0.15856 -0.44705,-0.45403 -0.44705,-0.77255 v -11.73217 c 0,-0.31992 0.16764,-0.61469 0.44006,-0.77535 l 10.15636,-5.86748 c 0.2794,-0.16065 0.62167,-0.16065 0.90108,0 l 10.16335,5.86748 c 0.2794,0.16066 0.44705,0.45543 0.44705,0.77535 z m 2.74515,-86.8960102 c -0.55462,-0.308741 -1.22938,-0.300359 -1.77702,0.01886 -0.54483,0.321314 -0.88152,0.908063 -0.88152,1.543707 V 47.192866 c 0,0.44705 -0.23749,0.85917 -0.62447,1.08269 -0.38418,0.22352 -0.86266,0.22352 -1.25034,0 l -7.4112,-4.26859 c -1.10365,-0.63844 -2.46296,-0.63844 -3.5708,0 l -29.59593,17.08066 c -1.10574,0.63564 -1.78819,1.81612 -1.78819,3.08741 v 34.1711 c 0,1.27827 0.68245,2.451774 1.78819,3.094394 l 29.59593,17.09254 c 1.10505,0.63564 2.46576,0.63564 3.57429,0 l 29.59594,-17.09952 c 1.10365,-0.64263 1.78819,-1.816134 1.78819,-3.094404 V 13.176838 c 0,-1.296434 -0.7055,-2.48879 -1.83709,-3.122338 z m 98.55509,74.8551002 c 1.09946,-0.63844 1.77631,-1.81752 1.77631,-3.08881 v -8.28153 c 0,-1.27408 -0.67755,-2.44968 -1.7791,-3.09091 l -29.40734,-17.07158 c -1.11063,-0.64263 -2.47274,-0.64263 -3.58337,0 l -29.58895,17.07857 c -1.11063,0.64263 -1.78819,1.81612 -1.78819,3.0944 v 34.15712 c 0,1.28526 0.69153,2.472734 1.80216,3.108374 l 29.40035,16.75725 c 1.08269,0.62167 2.40987,0.62866 3.50654,0.0209 l 17.78409,-9.88391 c 0.55882,-0.31433 0.91506,-0.90806 0.91506,-1.55069 0,-0.64263 -0.34227,-1.24335 -0.90109,-1.55768 L 265.59017,87.688216 c -0.55882,-0.31432 -0.90109,-0.90806 -0.90109,-1.5437 v -10.71514 c 0,-0.63984 0.33529,-1.22938 0.8941,-1.5479 l 9.26226,-5.3436 c 0.55182,-0.32131 1.22939,-0.32131 1.78121,0 l 9.26925,5.3436 c 0.55182,0.31433 0.89409,0.90806 0.89409,1.54371 v 8.42403 c 0,0.63564 0.34227,1.22937 0.8941,1.55069 0.55182,0.31433 1.23636,0.31433 1.78819,-0.007 z m 0,0"
     id="path4795"
     inkscape:connector-curvature="0"
     style="fill:#333333;fill-rule:evenodd;stroke-width:0.69851065" />
  <path
     d="m 275.58935,73.484076 c 0.20956,-0.12364 0.47221,-0.12364 0.68455,0 l 5.6789,3.27601 c 0.21234,0.12294 0.34227,0.34925 0.34227,0.59373 v 6.55901 c 0,0.24448 -0.12993,0.4708 -0.34227,0.59373 l -5.6789,3.27601 c -0.21234,0.12364 -0.47499,0.12364 -0.68455,0 l -5.6754,-3.27601 c -0.21654,-0.12293 -0.34925,-0.34925 -0.34925,-0.59373 v -6.55901 c 0,-0.24448 0.12573,-0.47079 0.34227,-0.59373 z m 0,0"
     id="path4797"
     inkscape:connector-curvature="0"
     style="fill:#689f63;fill-rule:evenodd;stroke-width:0.69851065" />
  <g
     clip-path="url(#a)"
     transform="matrix(0.69851157,0,0,0.69850975,-54.697647,-114.56593)"
     id="g4801">
    <path
       d="m 331.363,246.793 -118.715,-58.19 -60.87,124.174 118.712,58.193 z m 0,0"
       id="path4799"
       style="fill:url(#b)"
       inkscape:connector-curvature="0" />
  </g>
  <g
     clip-path="url(#c)"
     transform="matrix(0.69851157,0,0,0.69850975,-54.697647,-114.56593)"
     id="g4805">
    <path
       d="m 144.07,264.004 83.825,113.453 110.86,-81.906 -83.83,-113.45 z m 0,0"
       id="path4803"
       style="fill:url(#d)"
       inkscape:connector-curvature="0" />
  </g>
  <g
     clip-path="url(#e)"
     transform="matrix(0.69851157,0,0,0.69850975,-54.697647,-114.56593)"
     id="g4809">
    <path
       d="m 197.02,225.934 v 107.43 h 91.683 v -107.43 z m 0,0"
       id="path4807"
       style="fill:url(#f)"
       inkscape:connector-curvature="0" />
  </g>
</svg>
