<?xml version="1.0" encoding="UTF-8" standalone="no"?>
<svg
   xmlns:dc="http://purl.org/dc/elements/1.1/"
   xmlns:cc="http://creativecommons.org/ns#"
   xmlns:rdf="http://www.w3.org/1999/02/22-rdf-syntax-ns#"
   xmlns:svg="http://www.w3.org/2000/svg"
   xmlns="http://www.w3.org/2000/svg"
   xmlns:sodipodi="http://sodipodi.sourceforge.net/DTD/sodipodi-0.dtd"
   xmlns:inkscape="http://www.inkscape.org/namespaces/inkscape"
   id="Layer_2"
   viewBox="0 0 411.99999 411.99999"
   width="412"
   height="412"
   version="1.1"
   sodipodi:docname="react-logo.svg"
   inkscape:version="0.92.1 r15371">
  <metadata
     id="metadata4753">
    <rdf:RDF>
      <cc:Work
         rdf:about="">
        <dc:format>image/svg+xml</dc:format>
        <dc:type
           rdf:resource="http://purl.org/dc/dcmitype/StillImage" />
        <dc:title></dc:title>
      </cc:Work>
    </rdf:RDF>
  </metadata>
  <defs
     id="defs4751" />
  <sodipodi:namedview
     pagecolor="#ffffff"
     bordercolor="#666666"
     borderopacity="1"
     objecttolerance="10"
     gridtolerance="10"
     guidetolerance="10"
     inkscape:pageopacity="0"
     inkscape:pageshadow="2"
     inkscape:window-width="1920"
     inkscape:window-height="1017"
     id="namedview4749"
     showgrid="false"
     inkscape:zoom="0.73786413"
     inkscape:cx="353.03175"
     inkscape:cy="-82.11701"
     inkscape:window-x="-8"
     inkscape:window-y="-8"
     inkscape:window-maximized="1"
     inkscape:current-layer="Layer_2" />
  <style
     id="style4736">.st0{fill:#222}.st1{fill:#00d8ff}.st2{fill:none;stroke:#00d8ff;stroke-width:144.7456;stroke-miterlimit:10}</style>
  <path
     class="st0"
     d="m 0,-8e-5 h 412 v 412 H 0 Z"
     id="path4738"
     inkscape:connector-curvature="0"
     style="fill:#222222;stroke-width:0.11385619" />
  <ellipse
     class="st1"
     cx="205.68121"
     cy="205.74944"
     id="circle4740"
     rx="34.452881"
     ry="34.452885"
     style="fill:#00d8ff;stroke-width:0.11385619" />
  <path
     class="st2"
     d="m 205.6812,135.70515 c 46.24839,0 89.21772,6.63777 121.6098,17.7843 39.0299,13.43507 63.03079,33.80393 63.03079,52.24859 0,19.21889 -25.43547,40.86301 -67.34594,54.74202 -31.68617,10.49759 -73.3917,15.98548 -117.29465,15.98548 -45.01873,0 -87.6351,-5.14629 -119.685621,-16.09924 -40.544188,-13.85638 -64.966341,-35.7737 -64.966341,-54.62826 0,-18.29664 22.919251,-38.50618 61.402643,-51.91841 32.517329,-11.3287 76.545519,-18.11448 123.249319,-18.11448 z"
     id="path4742"
     inkscape:connector-curvature="0"
     style="fill:none;stroke:#00d8ff;stroke-width:16.48018456;stroke-miterlimit:10" />
  <path
     class="st2"
     d="m 144.71122,170.93225 c 23.10141,-40.06604 50.32443,-73.972428 76.16979,-96.458975 31.13967,-27.097763 60.77644,-37.709216 76.75045,-28.498202 16.64579,9.598078 22.69154,42.445513 13.77661,85.699507 -6.74029,32.69952 -22.81678,71.55861 -44.75687,109.59801 -22.4866,38.99569 -48.24087,73.34611 -73.73328,95.63918 -32.25545,28.20217 -63.45205,38.40373 -79.77902,28.98781 -15.848786,-9.14271 -21.905936,-39.08682 -14.311729,-79.13003 6.421489,-33.86091 22.543519,-75.38418 45.884049,-115.8373 z"
     id="path4744"
     inkscape:connector-curvature="0"
     style="fill:none;stroke:#00d8ff;stroke-width:16.48018456;stroke-miterlimit:10" />
  <path
     class="st2"
     d="m 144.76815,241.35231 c -23.16974,-40.0319 -38.9502,-80.5419 -45.531096,-114.16366 -7.92439,-40.510001 -2.322667,-71.490317 13.639976,-80.724064 16.63439,-9.632228 48.10425,1.537138 81.12253,30.855034 24.96867,22.167883 50.59769,55.50494 72.59471,93.51008 22.55491,38.96164 39.46255,78.42421 46.03205,111.63608 8.32289,42.03562 1.5826,74.15449 -14.73299,83.59314 -15.83739,9.16544 -44.8024,-0.53508 -75.70298,-27.1205 -26.09583,-22.46381 -54.02476,-57.16725 -77.4222,-97.58611 z"
     id="path4746"
     inkscape:connector-curvature="0"
     style="fill:none;stroke:#00d8ff;stroke-width:16.48018456;stroke-miterlimit:10" />
</svg>
